<?xml version="1.0" standalone="no"?><!DOCTYPE svg PUBLIC "-//W3C//DTD SVG 1.1//EN" "http://www.w3.org/Graphics/SVG/1.1/DTD/svg11.dtd"><svg t="1676789986288" class="icon" viewBox="0 0 1024 1024" version="1.1" xmlns="http://www.w3.org/2000/svg" p-id="4136" xmlns:xlink="http://www.w3.org/1999/xlink" width="200" height="200"><path d="M512 1014.056c-8.8 0-15.92-7.112-15.92-15.888v-127.12c0-8.776 7.12-15.888 15.92-15.888 8.792 0 15.92 7.112 15.92 15.888v127.12c0 8.776-7.12 15.888-15.92 15.888z" fill="#FDBA55" p-id="4137"></path><path d="M421.936 976.824a15.888 15.888 0 0 1-11.264-27.12l90.064-89.888a15.944 15.944 0 0 1 22.52 0 15.864 15.864 0 0 1 0 22.472l-90.064 89.888a15.888 15.888 0 0 1-11.256 4.648z" fill="#FDBA55" p-id="4138"></path><path d="M462.464 1004.056a15.92 15.92 0 0 1-14.656-22.064l49.52-117.12a15.936 15.936 0 0 1 20.864-8.456 15.88 15.88 0 0 1 8.48 20.816l-49.536 117.12a15.928 15.928 0 0 1-14.672 9.704z" fill="#FDBA55" p-id="4139"></path><path d="M602.064 976.824c-4.08 0-8.152-1.552-11.264-4.656l-90.064-89.88a15.864 15.864 0 0 1 0-22.48 15.944 15.944 0 0 1 22.52 0l90.064 89.888a15.88 15.88 0 1 1-11.256 27.12z" fill="#FDBA55" p-id="4140"></path><path d="M561.528 1004.056a15.92 15.92 0 0 1-14.672-9.712l-49.52-117.12a15.88 15.88 0 0 1 8.48-20.816 15.936 15.936 0 0 1 20.856 8.464l49.52 117.12a15.88 15.88 0 0 1-14.664 22.064z" fill="#FDBA55" p-id="4141"></path><path d="M692.84 463.496c-20.264-20.224-36.856-39.224-49.712-60.52H380.872c-12.864 21.296-29.456 40.296-49.72 60.52C284.8 509.72 256.112 573.6 256.112 644.16c0 141.04 114.56 255.384 255.88 255.384s255.888-114.336 255.888-255.384c0-70.568-28.672-134.448-75.04-180.672z" fill="#C3DDF7" p-id="4142"></path><path d="M610.36 258.12V51.864a18.92 18.92 0 0 0-18.88-18.84h-158.96a18.912 18.912 0 0 0-18.88 18.84v206.256c0 66.288-11.04 108.864-32.768 144.856H643.12c-21.72-35.992-32.768-78.568-32.768-144.856z" fill="#46C79C" p-id="4143"></path><path d="M556.08 402.976V26.784A18.92 18.92 0 0 0 537.2 7.944H486.8a18.92 18.92 0 0 0-18.88 18.84v376.192h88.176z" fill="#6CF5C5" p-id="4144"></path><path d="M337.952 626.848a30.08 30.016 0 1 0 60.16 0 30.08 30.016 0 1 0-60.16 0Z" fill="#3F4963" p-id="4145"></path><path d="M400.192 722.232H335.84c-8.792 0-15.92-7.12-15.92-15.888 0-8.784 7.128-15.896 15.92-15.896h64.352c8.8 0 15.92 7.12 15.92 15.896a15.904 15.904 0 0 1-15.92 15.888z" fill="#FF9596" p-id="4146"></path><path d="M633.824 626.848a30.08 30.016 0 1 0 60.16 0 30.08 30.016 0 1 0-60.16 0Z" fill="#3F4963" p-id="4147"></path><path d="M696.08 722.232h-64.352c-8.8 0-15.92-7.12-15.92-15.888 0-8.784 7.12-15.896 15.92-15.896h64.352c8.792 0 15.92 7.12 15.92 15.896a15.904 15.904 0 0 1-15.92 15.888z" fill="#FF9596" p-id="4148"></path><path d="M486.064 696.696c-25.272 0-45.824-20.512-45.824-45.728 0-8.776 7.128-15.888 15.92-15.888 8.8 0 15.92 7.112 15.92 15.888a13.976 13.976 0 0 0 27.96 0c0-8.776 7.12-15.888 15.92-15.888s15.92 7.112 15.92 15.888c0 25.216-20.552 45.728-45.816 45.728z" fill="#3F4963" p-id="4149"></path><path d="M545.864 696.696c-25.272 0-45.824-20.512-45.824-45.728 0-8.776 7.12-15.888 15.92-15.888s15.92 7.112 15.92 15.888a13.976 13.976 0 0 0 27.96 0c0-8.776 7.12-15.888 15.92-15.888s15.92 7.112 15.92 15.888c0 25.216-20.56 45.728-45.816 45.728z" fill="#3F4963" p-id="4150"></path><path d="M575.76 643.024c-8.8 0-15.92 7.112-15.92 15.888a13.976 13.976 0 0 1-27.96 0c0-8.776-7.12-15.888-15.92-15.888s-15.92 7.112-15.92 15.888a13.976 13.976 0 0 1-27.96 0 15.904 15.904 0 0 0-15.92-15.888c-8.792 0-15.92 7.112-15.92 15.888 0 25.216 20.56 45.728 45.816 45.728a45.632 45.632 0 0 0 29.904-11.152 45.624 45.624 0 0 0 29.896 11.152c25.264 0 45.816-20.52 45.816-45.728 0-8.776-7.12-15.888-15.92-15.888z m208.04 9.096c0-72.52-28.304-140.672-79.704-191.92-22.272-22.232-36.432-39.424-47.328-57.48-21.368-35.4-30.488-76.272-30.488-136.648V59.808a34.8 34.8 0 0 0-34.8-34.736h-20.872A34.832 34.832 0 0 0 537.208 0h-50.416a34.832 34.832 0 0 0-33.4 25.08h-20.864a34.8 34.8 0 0 0-34.8 34.728V266.08c0 60.384-9.12 101.248-30.488 136.64-10.904 18.064-25.056 35.256-47.336 57.488C268.504 511.44 240.2 579.6 240.2 652.12c0 128.92 90.576 237.112 211.544 264.544l-41.064 40.984a15.888 15.888 0 1 0 11.256 27.12c4.08 0 8.152-1.552 11.256-4.648l32.464-32.4-17.848 42.216a15.88 15.88 0 0 0 14.656 22.064 15.92 15.92 0 0 0 14.68-9.712l18.936-44.784v48.608c0 8.776 7.12 15.888 15.92 15.888s15.92-7.112 15.92-15.888v-48.608l18.944 44.784a15.92 15.92 0 0 0 20.856 8.464 15.88 15.88 0 0 0 8.48-20.816l-17.848-42.216 32.456 32.4c3.112 3.104 7.184 4.648 11.256 4.648a15.896 15.896 0 0 0 11.264-27.12l-41.064-40.984c120.96-27.44 211.536-135.632 211.536-264.544zM512 891.6c-132.32 0-239.96-107.44-239.96-239.488 0-64.016 24.984-124.192 70.376-169.44 23.888-23.84 39.952-43.44 52.096-63.56 24.568-40.704 35.048-86.48 35.048-153.048V59.808c0-1.6 1.36-2.96 2.96-2.96H452v354.072h31.84V34.736c0-1.6 1.36-2.96 2.96-2.96h50.416c1.6 0 2.96 1.36 2.96 2.96v376.184h31.84V56.856h19.472c1.6 0 2.96 1.352 2.96 2.96v206.256c0 66.568 10.48 112.344 35.056 153.04 12.144 20.128 28.208 39.728 52.096 63.568 45.384 45.248 70.376 105.416 70.376 169.44 0 132.056-107.656 239.488-239.968 239.488zM368.024 604.776a30.048 30.048 0 0 0-30.08 30.024 30.048 30.048 0 0 0 30.08 30.016c16.608 0 30.072-13.44 30.072-30.016a30.048 30.048 0 0 0-30.08-30.024z m295.872 0a30.04 30.04 0 0 0-30.072 30.024 30.04 30.04 0 0 0 30.08 30.016c16.6 0 30.072-13.44 30.072-30.016a30.048 30.048 0 0 0-30.08-30.024z" fill="#000000" p-id="4151"></path></svg>