<?xml version="1.0" standalone="no"?><!DOCTYPE svg PUBLIC "-//W3C//DTD SVG 1.1//EN" "http://www.w3.org/Graphics/SVG/1.1/DTD/svg11.dtd"><svg t="1676789955091" class="icon" viewBox="0 0 1024 1024" version="1.1" xmlns="http://www.w3.org/2000/svg" p-id="3490" xmlns:xlink="http://www.w3.org/1999/xlink" width="200" height="200"><path d="M241.304127 432.656277C535.087989 283.744347 576.86397 102.320432 704.71991 102.320432c70.615967 0 127.86394 57.239973 127.86394 127.85594 0 197.903907-33.463984 777.823635-451.983788 777.823635-168.175921 0-304.503857-136.335936-304.503858-304.511857 0-118.439944 67.615968-221.087896 166.351922-271.439873l-1.151999 0.6z" fill="#8162D7" p-id="3491"></path><path d="M277.53611 642.896179m-30.215986 0a30.215986 30.215986 0 1 0 60.431972 0 30.215986 30.215986 0 1 0-60.431972 0Z" fill="#3F4963" p-id="3492"></path><path d="M309.856095 738.912134H245.200125a15.999993 15.999993 0 0 1 0-31.991985h64.65597a15.999993 15.999993 0 0 1 0 31.991985z" fill="#FF9596" p-id="3493"></path><path d="M574.815971 642.896179m-30.215986 0a30.215986 30.215986 0 1 0 60.431971 0 30.215986 30.215986 0 1 0-60.431971 0Z" fill="#3F4963" p-id="3494"></path><path d="M607.143955 738.912134H542.479986a15.999993 15.999993 0 1 1 0-31.991985h64.655969a15.999993 15.999993 0 1 1 0 31.991985z" fill="#FF9596" p-id="3495"></path><path d="M396.128054 713.200146a46.079978 46.079978 0 0 1-46.039978-46.031979 15.999993 15.999993 0 0 1 31.999985 0c0 7.743996 6.295997 14.039993 14.039993 14.039994 7.743996 0 14.047993-6.295997 14.047994-14.039994a15.999993 15.999993 0 0 1 31.991985 0 46.079978 46.079978 0 0 1-46.039979 46.031979z" fill="#3F4963" p-id="3496"></path><path d="M456.208026 713.200146a46.079978 46.079978 0 0 1-46.031978-46.031979 15.999993 15.999993 0 0 1 31.991985 0c0 7.743996 6.295997 14.039993 14.039993 14.039994 7.743996 0 14.047993-6.295997 14.047994-14.039994a15.999993 15.999993 0 0 1 31.991985 0 46.079978 46.079978 0 0 1-46.039979 46.031979z" fill="#3F4963" p-id="3497"></path><path d="M947.855796 283.632347c-1.127999-26.543988-8.055996-82.383961-44.543979-118.871944-36.495983-36.495983-92.327957-43.41598-118.879945-44.543979-5.423997-0.24-13.423994-4.311998-17.847991-8.375996-19.567991-17.967992-63.94397-52.559975-115.559946-52.559976-51.607976 0-95.983955 34.591984-115.559946 52.559976-8.463996 7.767996-8.399996 13.407994 0 21.11999 16.375992 15.023993 50.095977 41.66398 90.879957 49.983976-23.167989 34.799984-28.207987 77.719964-29.159986 99.999953-0.488 11.479995 3.543998 15.415993 14.935993 14.927993 22.19999-0.944 64.87997-5.951997 99.607953-28.911986 8.223996 40.983981 35.007984 74.903965 50.087977 91.327957 7.767996 8.463996 13.407994 8.399996 21.11999 0 15.023993-16.375992 41.66398-50.095977 49.983977-90.879957 34.799984 23.167989 77.711964 28.207987 99.999953 29.159986 11.487995 0.488 15.423993-3.543998 14.935993-14.935993z" fill="#6CF5C5" p-id="3498"></path><path d="M772.375878 166.048402a44.375979 44.375979 0 0 1-31.375985-75.759964l61.303971-61.295972a44.375979 44.375979 0 1 1 62.759971 62.759971l-61.303972 61.303971a44.239979 44.239979 0 0 1-31.383985 12.991994z" fill="#46C79C" p-id="3499"></path><path d="M277.52011 612.672193a30.215986 30.215986 0 1 0 0 60.431971 30.215986 30.215986 0 0 0 0-60.431971z m686.319678-329.719846c-1.343999-31.319985-9.519996-89.791958-49.223977-129.503939-14.511993-14.511993-32.735985-25.983988-54.343974-34.279984l16.095992-16.103992a59.975972 59.975972 0 0 0 17.679992-42.69598c0-16.119992-6.279997-31.279985-17.679992-42.68798A59.991972 59.991972 0 0 0 833.671849 0.00048c-16.119992 0-31.279985 6.279997-42.68798 17.679992l-52.759975 52.759975c-29.119986-17.791992-59.039972-27.151987-87.207959-27.159987-56.159974 0-103.279952 35.575983-126.375941 56.775973-2.847999 2.615999-11.503995 10.559995-11.503995 22.34399s8.663996 19.735991 11.503995 22.343989c7.263997 6.671997 17.703992 15.431993 30.551986 24.063989-8.031996 7.959996-16.279992 16.319992-24.823989 24.991988C468.72002 256.32036 384.38406 341.86432 235.752129 417.520284a21.50399 21.50399 0 0 0-0.575999 0.28C127.19218 472.880258 60.096212 582.352207 60.096212 703.49615 60.096212 880.216067 203.872144 1024 380.600062 1024c95.007955 0 177.535917-29.151986 245.287885-86.639959 57.135973-48.471977 104.247951-117.599945 140.039934-205.463904 58.911972-144.639932 77.095964-313.279853 81.479962-436.359796 32.071985 14.463993 65.519969 18.191991 84.83196 19.015992 3.871998 0.168 15.599993 0.664 23.935989-7.671997 8.319996-8.327996 7.823996-20.079991 7.655996-23.927989zM752.295887 101.608432l61.303972-61.303971A28.183987 28.183987 0 0 1 833.679849 32.000465c7.583996 0 14.703993 2.959999 20.063991 8.319996 5.359997 5.359997 8.319996 12.479994 8.319996 20.063991 0 7.575996-2.959999 14.703993-8.319996 20.06399l-61.295971 61.303972a28.183987 28.183987 0 0 1-20.071991 8.311996 28.183987 28.183987 0 0 1-20.063991-8.319996A28.191987 28.191987 0 0 1 743.999891 121.680423c0-7.575996 2.951999-14.703993 8.311996-20.063991z m-16.007992 618.215711c-73.567966 180.607915-193.239909 272.183872-355.695833 272.183872-159.087925 0-288.511865-129.431939-288.511865-288.519865 0-108.495949 59.775972-206.591903 156.135927-256.41588l0.304-0.151999c154.335928-78.223963 241.199887-166.327922 304.623857-230.663892a2297.758923 2297.758923 0 0 1 30.879985-30.943986c5.847997 2.767999 11.951994 5.327998 18.295992 7.535997-16.239992 33.431984-20.263991 69.175968-21.12799 89.407958-0.16 3.863998-0.664 15.599993 7.671996 23.935988 8.327996 8.335996 20.079991 7.831996 23.927989 7.663997 20.111991-0.856 55.639974-4.839998 88.951958-20.91199 12.151994 35.135984 34.583984 63.24797 48.279977 78.159963 2.607999 2.847999 10.559995 11.503995 22.34399 11.503995s19.735991-8.655996 22.351989-11.503995a261.727877 261.727877 0 0 0 17.951992-21.84799c-11.663995 177.919917-46.927978 298.25586-76.383964 370.567827z m105.49595-463.735783a15.999993 15.999993 0 0 0-24.543988 10.119995c-7.327997 35.911983-30.719986 66.255969-44.871979 81.919962-14.223993-15.743993-37.727982-46.239978-44.959979-82.319962a15.991993 15.991993 0 0 0-24.511988-10.191995c-30.567986 20.215991-68.575968 25.119988-89.655958 26.191988 1.079999-21.18399 6.015997-59.375972 26.407987-89.999958a15.983993 15.983993 0 0 0-10.111995-24.535988c-35.919983-7.319997-66.255969-30.719986-81.919962-44.879979 46.959978-42.48798 87.887959-47.119978 103.391952-47.119978 25.175988 0 48.719977 9.735995 66.887968 20.30399a60.175972 60.175972 0 0 0-5.903997 26.103988c0 16.119992 6.279997 31.279985 17.679992 42.68798a59.959972 59.959972 0 0 0 42.69598 17.679992 59.967972 59.967972 0 0 0 42.68798-17.679992l19.959991-19.959991c23.655989 6.863997 42.79998 17.487992 56.967973 31.663985 10.975995 10.967995 36.639983 43.17598 39.799981 106.431951-21.19999-1.079999-59.391972-6.023997-89.999958-26.415988zM486.240012 651.176175a15.999993 15.999993 0 0 0-15.991992 15.991992c0 7.743996-6.303997 14.039993-14.039994 14.039994a14.055993 14.055993 0 0 1-14.047993-14.039994 15.999993 15.999993 0 1 0-31.991985 0c0 7.743996-6.295997 14.039993-14.039994 14.039994a14.055993 14.055993 0 0 1-14.047993-14.039994 15.999993 15.999993 0 0 0-31.991985 0 46.079978 46.079978 0 0 0 46.039978 46.031979 45.783979 45.783979 0 0 0 30.039986-11.231995 45.799979 45.799979 0 0 0 30.039986 11.231995 46.079978 46.079978 0 0 0 46.039979-46.031979 15.999993 15.999993 0 0 0-15.999993-15.999992z m88.567959-38.503982a30.215986 30.215986 0 1 0 0 60.431971 30.215986 30.215986 0 0 0 0-60.431971z" fill="#000000" p-id="3500"></path></svg>