<?xml version="1.0" standalone="no"?><!DOCTYPE svg PUBLIC "-//W3C//DTD SVG 1.1//EN" "http://www.w3.org/Graphics/SVG/1.1/DTD/svg11.dtd"><svg t="1676789970225" class="icon" viewBox="0 0 1024 1024" version="1.1" xmlns="http://www.w3.org/2000/svg" p-id="3814" xmlns:xlink="http://www.w3.org/1999/xlink" width="200" height="200"><path d="M271.3256 1006.032c-41.648 0-80.56-7.08-115.656-21.048-36.824-14.656-59.88-33.064-72.736-45.92-21.688-21.688-40.056-53.2-51.704-88.72C16.6456 805.904 12.4856 756.84 18.8056 704.48c7.552-62.464 30.136-128.176 67.12-195.296 42.72-77.536 105.096-157.576 185.4-237.872 90.752-90.76 180.896-158.4 267.912-201.04 73.536-36.04 144.672-54.32 211.448-54.32 41.64 0 80.552 7.088 115.648 21.056 36.832 14.656 59.88 33.056 72.736 45.912 21.688 21.688 40.056 53.2 51.712 88.736 14.56 44.416 18.744 93.488 12.416 145.848-7.56 62.464-30.136 128.176-67.12 195.296-42.72 77.544-105.096 157.576-185.4 237.872-90.744 90.744-180.88 158.384-267.904 201.04-73.544 36.04-144.688 54.32-211.456 54.32z" fill="#46C79C" p-id="3815"></path><path d="M129.4216 892.576c58.464 58.456 264.648 128.128 577.968-185.192 313.32-313.32 243.656-519.504 185.2-577.968-58.456-58.448-264.64-128.12-577.96 185.2C1.3016 627.936 70.9656 834.128 129.4296 892.576z" fill="#35A57D" p-id="3816"></path><path d="M676.5016 345.392m-233.904 0a233.904 233.904 0 1 0 467.808 0 233.904 233.904 0 1 0-467.808 0Z" fill="#6CF5C5" p-id="3817"></path><path d="M528.3656 306.296m-30.112 0a30.112 30.112 0 1 0 60.224 0 30.112 30.112 0 1 0-60.224 0Z" fill="#3F4963" p-id="3818"></path><path d="M560.5816 402h-64.432a15.944 15.944 0 1 1 0-31.88h64.432a15.944 15.944 0 1 1 0 31.88z" fill="#FF6376" p-id="3819"></path><path d="M824.6376 306.296m-30.112 0a30.112 30.112 0 1 0 60.224 0 30.112 30.112 0 1 0-60.224 0Z" fill="#3F4963" p-id="3820"></path><path d="M856.8616 402h-64.44a15.944 15.944 0 1 1 0-31.88h64.44a15.944 15.944 0 1 1 0 31.88z" fill="#FF6376" p-id="3821"></path><path d="M646.5656 376.384a45.928 45.928 0 0 1-45.88-45.88 15.944 15.944 0 1 1 31.888 0c0 7.72 6.28 14 14 14s13.992-6.28 13.992-14a15.944 15.944 0 1 1 31.888 0 45.936 45.936 0 0 1-45.888 45.88z" fill="#3F4963" p-id="3822"></path><path d="M706.4456 376.384a45.928 45.928 0 0 1-45.88-45.88 15.944 15.944 0 1 1 31.88 0c0 7.72 6.28 14 14 14s14-6.28 14-14a15.944 15.944 0 1 1 31.88 0 45.936 45.936 0 0 1-45.88 45.88z" fill="#3F4963" p-id="3823"></path><path d="M345.5016 676.624m-233.904 0a233.904 233.904 0 1 0 467.808 0 233.904 233.904 0 1 0-467.808 0Z" fill="#6CF5C5" p-id="3824"></path><path d="M197.3656 637.552m-30.112 0a30.112 30.112 0 1 0 60.224 0 30.112 30.112 0 1 0-60.224 0Z" fill="#3F4963" p-id="3825"></path><path d="M229.5896 733.232h-64.432a15.944 15.944 0 1 1 0-31.88h64.432a15.944 15.944 0 0 1 0 31.88z" fill="#FF6376" p-id="3826"></path><path d="M493.6376 637.552m-30.112 0a30.112 30.112 0 1 0 60.224 0 30.112 30.112 0 1 0-60.224 0Z" fill="#3F4963" p-id="3827"></path><path d="M525.8616 733.232h-64.432a15.944 15.944 0 1 1 0-31.88h64.432a15.944 15.944 0 1 1 0 31.88z" fill="#FF6376" p-id="3828"></path><path d="M315.5736 707.616a45.928 45.928 0 0 1-45.88-45.88 15.944 15.944 0 1 1 31.88 0c0 7.72 6.28 14 14 14s14-6.28 14-14a15.944 15.944 0 1 1 31.88 0 45.936 45.936 0 0 1-45.88 45.88z" fill="#3F4963" p-id="3829"></path><path d="M375.4456 707.616a45.928 45.928 0 0 1-45.88-45.88 15.944 15.944 0 1 1 31.888 0c0 7.72 6.28 14 14 14 7.712 0 13.992-6.28 13.992-14a15.944 15.944 0 1 1 31.888 0 45.936 45.936 0 0 1-45.888 45.88z" fill="#3F4963" p-id="3830"></path><path d="M1005.9256 166.696c-12.416-37.864-32.16-71.616-55.576-95.04-13.92-13.92-38.76-33.784-78.112-49.448C835.2536 7.488 794.3576 0.024 750.6936 0.024c-69.224 0-142.72 18.824-218.464 55.936-88.6 43.424-180.176 112.08-272.176 204.088-81.36 81.36-144.64 162.6-188.08 241.456-37.984 68.912-61.192 136.56-68.984 201.072-6.616 54.688-2.208 106.08 13.088 152.736 12.416 37.856 32.16 71.608 55.584 95.032 13.92 13.92 38.76 33.792 78.112 49.456 36.984 14.72 77.88 22.176 121.552 22.176 69.224 0 142.728-18.816 218.48-55.944 88.6-43.416 180.16-112.08 272.16-204.08 81.36-81.36 144.64-162.592 188.08-241.44 37.976-68.928 61.184-136.576 68.976-201.08 6.624-54.696 2.216-106.08-13.088-152.736z m-18.552 148.904c-7.304 60.432-29.256 124.192-65.248 189.52-42 76.224-103.472 155.048-182.712 234.288-89.496 89.504-178.208 156.12-263.64 197.992-71.344 34.96-140.128 52.688-204.44 52.688-39.624 0-76.56-6.704-109.76-19.92-34.312-13.656-55.568-30.576-67.36-42.376-19.96-19.952-36.952-49.224-47.84-82.424-13.84-42.192-17.784-88.944-11.736-138.968 7.312-60.432 29.264-124.192 65.256-189.52 42-76.224 103.464-155.056 182.712-234.296 89.504-89.512 178.216-156.128 263.656-198 71.328-34.96 140.112-52.68 204.432-52.68 39.616 0 76.536 6.704 109.752 19.92 34.312 13.656 55.568 30.576 67.36 42.368 19.952 19.952 36.944 49.232 47.84 82.432 13.832 42.192 17.776 88.952 11.728 138.976z m-790 291.824a30.112 30.112 0 1 0 0 60.24 30.112 30.112 0 0 0 0-60.24z m296.272 0a30.112 30.112 0 1 0 0 60.232 30.112 30.112 0 0 0 0-60.232z m-88.256 38.368c-8.808 0-15.944 7.144-15.944 15.944 0 7.72-6.28 14-14 14-7.712 0-14-6.28-14-14a15.944 15.944 0 1 0-31.88 0c0 7.72-6.28 14-14 14-7.712 0-13.992-6.28-13.992-14a15.944 15.944 0 1 0-31.888 0 45.928 45.928 0 0 0 45.88 45.88c11.44 0 21.896-4.24 29.944-11.192a45.648 45.648 0 0 0 29.936 11.192 45.928 45.928 0 0 0 45.88-45.88c0-8.8-7.136-15.944-15.936-15.944zM746.6056 63.08c-167.776 0-333.648 130.656-443.256 240.264C164.4136 442.288 84.8376 574.68 66.8376 696.848c-14.736 100.048 16.848 172.528 51.312 207 34.48 34.48 93.272 55.064 157.264 55.072h0.016c167.752 0 333.632-130.656 443.232-240.264 138.936-138.944 218.512-271.336 236.512-393.504 14.736-100.048-16.848-172.536-51.32-207.008-34.48-34.48-93.256-55.064-157.248-55.064zM325.8936 325.888c53.144-53.136 102.584-94.576 148.152-126.72a248.488 248.488 0 0 0-47.384 146.216c0 37.104 8.144 72.336 22.72 104.024a248.416 248.416 0 0 0-103.872-22.64 248.496 248.496 0 0 0-146.528 47.616c34.248-48.576 76.72-98.296 126.912-148.496z m-50.48 601.144c-82.576 0-123.992-35-134.72-45.728-8.728-8.736-24.992-28.696-35.8-64.264-10.016-32.976-12.464-69.808-7.328-109.56 13.984 112.96 103.656 202.8 216.544 217.008a304.168 304.168 0 0 1-38.696 2.544z m70.096-32.456c-120.184 0-217.96-97.776-217.96-217.96 0-120.184 97.776-217.96 217.96-217.96 120.184 0 217.96 97.776 217.96 217.96 0 120.184-97.776 217.96-217.96 217.96z m350.608-198.464c-53.144 53.136-102.584 94.576-148.152 126.72a248.48 248.48 0 0 0 47.392-146.216c0-37.104-8.144-72.336-22.72-104.024a248.4 248.4 0 0 0 103.872 22.64c54.696 0 105.336-17.688 146.528-47.616-34.256 48.576-76.72 98.296-126.92 148.496z m-19.608-132.768c-120.184 0-217.96-97.776-217.96-217.96 0-120.184 97.776-217.96 217.96-217.96 120.176 0 217.96 97.776 217.96 217.96 0 120.184-97.776 217.96-217.96 217.96z m247.936-248.832c-13.984-112.96-103.656-202.784-216.544-217a305.328 305.328 0 0 1 38.704-2.544c82.56 0 123.976 35 134.704 45.728 8.736 8.736 25 28.696 35.808 64.264 10.016 32.976 12.464 69.8 7.328 109.552z m-129.92-8.208a30.112 30.112 0 1 0 60.224 0.016 30.112 30.112 0 0 0-60.224-0.016z m-58.144 8.256c-8.8 0-15.944 7.136-15.944 15.944 0 7.72-6.28 14-14 14-7.712 0-13.992-6.28-13.992-14a15.944 15.944 0 1 0-31.888 0c0 7.72-6.272 14-13.992 14-7.72 0-14-6.28-14-14a15.944 15.944 0 1 0-31.88 0 45.928 45.928 0 0 0 45.88 45.88c11.44 0 21.896-4.24 29.936-11.192a45.648 45.648 0 0 0 29.944 11.192 45.928 45.928 0 0 0 45.872-45.88c0-8.8-7.128-15.944-15.936-15.944z m-208.016-38.368a30.112 30.112 0 1 0 0 60.24 30.112 30.112 0 0 0 0-60.24z" fill="#000000" p-id="3831"></path></svg>