<?xml version="1.0" standalone="no"?><!DOCTYPE svg PUBLIC "-//W3C//DTD SVG 1.1//EN" "http://www.w3.org/Graphics/SVG/1.1/DTD/svg11.dtd"><svg t="1676789919660" class="icon" viewBox="0 0 1024 1024" version="1.1" xmlns="http://www.w3.org/2000/svg" p-id="2674" xmlns:xlink="http://www.w3.org/1999/xlink" width="200" height="200"><path d="M567.72 64.408c-34.72 34.8-41.312 88.04-42.392 113.344-0.464 10.952 3.376 14.704 14.208 14.24 25.264-1.08 78.4-7.68 113.128-42.48 34.728-34.784 41.312-88.032 42.4-113.336 0.456-10.864-3.296-14.712-14.216-14.24-25.256 1.072-78.4 7.68-113.12 42.472z" fill="#46C79C" p-id="2675"></path><path d="M511.408 310.456a45.768 45.768 0 0 1-45.728-45.816V61.68a45.776 45.776 0 0 1 45.728-45.824 45.776 45.776 0 0 1 45.728 45.824V264.64a45.776 45.776 0 0 1-45.728 45.816z" fill="#866539" p-id="2676"></path><path d="M722.56 517.28l-0.024-0.016-1.48-1.568c-36.664-38.456-33.624-99.312-33.624-144.912 0-97.408-78.816-176.384-176.04-176.384-97.224 0-176.048 78.976-176.048 176.392 0 45.6 3.04 106.448-33.616 144.904l-1.48 1.568-0.024 0.024a290.32 290.32 0 0 0-79.304 199.816c0 160.728 130.048 291.032 290.464 291.032s290.464-130.304 290.464-291.032a290.24 290.24 0 0 0-79.28-199.816z" fill="#FFD553" p-id="2677"></path><path d="M334.344 681.272a29.976 29.912 90 1 0 59.824 0 29.976 29.912 90 1 0-59.824 0Z" fill="#3F4963" p-id="2678"></path><path d="M396.256 776.504h-64a15.848 15.848 0 0 1-15.84-15.864c0-8.76 7.096-15.864 15.84-15.864h64c8.744 0 15.84 7.104 15.84 15.864a15.848 15.848 0 0 1-15.84 15.864z" fill="#FF6376" p-id="2679"></path><path d="M628.632 681.272a29.976 29.912 90 1 0 59.824 0 29.976 29.912 90 1 0-59.824 0Z" fill="#3F4963" p-id="2680"></path><path d="M690.552 776.504h-64a15.848 15.848 0 0 1-15.84-15.864c0-8.76 7.088-15.864 15.84-15.864h64c8.744 0 15.84 7.104 15.84 15.864a15.848 15.848 0 0 1-15.84 15.864z" fill="#FF6376" p-id="2681"></path><path d="M481.664 751.008c-25.128 0-45.576-20.48-45.576-45.664 0-8.76 7.096-15.864 15.84-15.864s15.84 7.104 15.84 15.864c0 7.68 6.232 13.928 13.896 13.928 7.664 0 13.896-6.248 13.896-13.92 0-8.768 7.096-15.872 15.84-15.872s15.84 7.104 15.84 15.864c0 25.176-20.448 45.664-45.576 45.664z" fill="#3F4963" p-id="2682"></path><path d="M541.136 751.008c-25.12 0-45.568-20.48-45.568-45.664 0-8.76 7.088-15.864 15.84-15.864 8.736 0 15.832 7.104 15.832 15.864 0 7.68 6.24 13.928 13.896 13.928 7.672 0 13.904-6.248 13.904-13.92 0-8.768 7.088-15.872 15.84-15.872 8.744 0 15.832 7.104 15.832 15.864 0 25.176-20.44 45.664-45.576 45.664z" fill="#3F4963" p-id="2683"></path><path d="M424 388m-12 0a12 12 0 1 0 24 0 12 12 0 1 0-24 0Z" fill="#644C00" p-id="2684"></path><path d="M376 460m-12 0a12 12 0 1 0 24 0 12 12 0 1 0-24 0Z" fill="#644C00" p-id="2685"></path><path d="M480 428m-12 0a12 12 0 1 0 24 0 12 12 0 1 0-24 0Z" fill="#644C00" p-id="2686"></path><path d="M528 388m-12 0a12 12 0 1 0 24 0 12 12 0 1 0-24 0Z" fill="#644C00" p-id="2687"></path><path d="M576 452m-12 0a12 12 0 1 0 24 0 12 12 0 1 0-24 0Z" fill="#644C00" p-id="2688"></path><path d="M680 476m-12 0a12 12 0 1 0 24 0 12 12 0 1 0-24 0Z" fill="#644C00" p-id="2689"></path><path d="M632 396m-12 0a12 12 0 1 0 24 0 12 12 0 1 0-24 0Z" fill="#644C00" p-id="2690"></path><path d="M311.776 528.144l-0.04 0.04a0.256 0.256 0 0 1 0.04-0.04z m52.48 123.144a29.944 29.944 0 0 0-29.92 29.976 29.944 29.944 0 0 0 29.92 29.976 29.944 29.944 0 0 0 29.92-29.976 29.952 29.952 0 0 0-29.92-29.976z m369.816-144.904l-0.152-0.16-1.408-1.488c-29.688-31.136-29.456-82.696-29.264-124.112 0.008-3.344 0.032-6.632 0.032-9.832 0-75.28-43.416-140.576-106.464-172.112 23.072-6.784 47.48-18.336 67.048-37.944 37.944-38.008 45.744-93.936 47.016-123.88 0.16-3.752 0.64-15.144-7.472-23.28C695.288 5.432 683.92 5.92 680.168 6.08c-26.6 1.136-73.728 7.48-110.52 35.648C561.336 17.488 538.376 0 511.408 0c-33.952 0-61.568 27.672-61.568 61.68v127c-75.704 25.76-130.32 97.664-130.32 182.112 0 3.2 0.016 6.48 0.032 9.824 0.184 41.424 0.424 92.976-29.24 124.08l-1.504 1.6a0.136 0.136 0 0 1-0.024 0.016l-0.064 0.072C234.8 563.576 205.096 638.408 205.096 717.104c0 169.216 137.408 306.888 306.296 306.888 168.896 0 306.304-137.672 306.304-306.896 0-78.688-29.696-153.52-83.624-210.712zM572.968 82.184c1.912-2.296 3.896-4.504 5.952-6.56 30.304-30.36 78.48-36.528 100.2-37.72-1.192 21.76-7.344 70.024-37.656 100.4-19.32 19.36-45.6 28.928-68.496 33.624V82.184zM481.512 61.68a29.96 29.96 0 0 1 29.888-29.952c16.48 0 29.896 13.44 29.896 29.952v119.2a191.968 191.968 0 0 0-59.784-0.008V61.68z m29.888 930.584c-151.44 0-274.632-123.44-274.632-275.16 0-70.56 26.624-137.648 74.976-188.928l0.16-0.16 1.28-1.36c38.512-40.4 38.24-99.048 38.032-146.176l-0.024-9.696c0-88.504 71.864-160.512 160.2-160.512 88.344 0 160.208 72 160.208 160.52l-0.024 9.68c-0.216 47.128-0.48 105.784 38.056 146.216l1.392 1.464 0.024 0.032 0.024 0.024a274.32 274.32 0 0 1 74.952 188.896c0 151.728-123.2 275.16-274.624 275.16z m147.152-340.976a29.944 29.944 0 0 0-29.92 29.976 29.944 29.944 0 0 0 29.92 29.976 29.944 29.944 0 0 0 29.912-29.976 29.944 29.944 0 0 0-29.92-29.976z m-87.68 38.192c-8.736 0-15.832 7.104-15.832 15.864 0 7.68-6.24 13.928-13.896 13.928a13.928 13.928 0 0 1-13.904-13.928 15.848 15.848 0 0 0-15.84-15.864c-8.744 0-15.832 7.104-15.832 15.864 0 7.68-6.24 13.928-13.904 13.928a13.928 13.928 0 0 1-13.896-13.928 15.848 15.848 0 0 0-15.84-15.864c-8.744 0-15.84 7.104-15.84 15.864 0 25.176 20.448 45.664 45.576 45.664a45.28 45.28 0 0 0 29.744-11.136 45.28 45.28 0 0 0 29.736 11.136c25.136 0 45.576-20.48 45.576-45.664a15.864 15.864 0 0 0-15.84-15.864z" fill="#000000" p-id="2691"></path></svg>