<?xml version="1.0" standalone="no"?><!DOCTYPE svg PUBLIC "-//W3C//DTD SVG 1.1//EN" "http://www.w3.org/Graphics/SVG/1.1/DTD/svg11.dtd"><svg t="1676789883650" class="icon" viewBox="0 0 1024 1024" version="1.1" xmlns="http://www.w3.org/2000/svg" p-id="2515" xmlns:xlink="http://www.w3.org/1999/xlink" width="200" height="200"><path d="M512.136 228c-21.016 0-38.048-16.944-38.048-37.84 0-96.056 78.608-174.208 175.232-174.208 21.016 0 38.048 16.936 38.048 37.832 0 20.888-17.04 37.824-38.048 37.824-54.664 0-99.136 44.216-99.136 98.56 0 20.888-17.032 37.824-38.048 37.824z" fill="#28785C" p-id="2516"></path><path d="M306.192 1005.416c-119.736 0-223.056-89.304-237.08-210.416l-45.856-396C8.16 268.656 102.208 150.832 233.312 135.824c131.128-14.984 249.616 78.496 264.704 208.832l45.864 396c15.088 130.344-78.96 248.168-210.056 263.176a244.4 244.4 0 0 1-27.632 1.584z" fill="#46C79C" p-id="2517"></path><path d="M713.728 1005.416c-9.12 0-18.344-0.52-27.624-1.584-131.104-15.008-225.144-132.832-210.056-263.176l45.856-396C536.992 214.32 655.52 120.84 786.616 135.824c131.104 15.008 225.144 132.832 210.056 263.176l-45.856 396c-14.024 121.112-117.344 210.416-237.088 210.416z" fill="#46C79C" p-id="2518"></path><path d="M509.96 122.584c208.744 0 292.368 150.096 277.64 302.544l-35.072 362.944c-10.864 113.24-81.6 217.984-242.56 217.984-160.976 0-231.712-104.744-242.576-217.984L232.32 425.12c-14.72-152.448 68.904-302.544 277.64-302.544z" fill="#6CF5C5" p-id="2519"></path><path d="M330.576 693.344a30.304 30.128 0 1 0 60.608 0 30.304 30.128 0 1 0-60.608 0Z" fill="#3F4963" p-id="2520"></path><path d="M393.304 789.088h-64.84a16 16 0 0 1-16.04-15.952 16 16 0 0 1 16.04-15.944h64.84a16 16 0 0 1 16.048 15.944 16 16 0 0 1-16.048 15.952z" fill="#FF6376" p-id="2521"></path><path d="M628.736 693.344a30.304 30.128 0 1 0 60.608 0 30.304 30.128 0 1 0-60.608 0Z" fill="#3F4963" p-id="2522"></path><path d="M691.456 789.088h-64.84a16 16 0 0 1-16.04-15.952 16 16 0 0 1 16.04-15.944h64.84a16 16 0 0 1 16.048 15.944 16 16 0 0 1-16.048 15.952z" fill="#FF6376" p-id="2523"></path><path d="M479.84 763.456c-25.464 0-46.184-20.592-46.184-45.904a16 16 0 0 1 16.048-15.952 16 16 0 0 1 16.04 15.952c0 7.72 6.32 14 14.088 14 7.76 0 14.08-6.28 14.08-14a16 16 0 0 1 16.048-15.952 16 16 0 0 1 16.04 15.952c0 25.312-20.704 45.904-46.16 45.904z" fill="#3F4963" p-id="2524"></path><path d="M540.088 763.456c-25.456 0-46.168-20.592-46.168-45.904a16 16 0 0 1 16.04-15.952 16 16 0 0 1 16.04 15.952c0 7.72 6.32 14 14.088 14 7.76 0 14.08-6.28 14.08-14a16 16 0 0 1 16.048-15.952 16 16 0 0 1 16.04 15.952c0 25.312-20.704 45.904-46.16 45.904z" fill="#3F4963" p-id="2525"></path><path d="M360.88 663.216c-16.728 0-30.304 13.496-30.304 30.128 0 16.64 13.576 30.136 30.312 30.136s30.304-13.488 30.304-30.136c0-16.64-13.568-30.128-30.304-30.128zM570.224 701.6a16 16 0 0 0-16.04 15.952c0 7.72-6.32 14-14.08 14-7.776 0-14.088-6.28-14.088-14a16 16 0 0 0-16.048-15.952 16 16 0 0 0-16.04 15.952c0 7.72-6.32 14-14.08 14a14.064 14.064 0 0 1-14.096-14 16 16 0 0 0-16.04-15.952 16 16 0 0 0-16.04 15.952c0 25.312 20.72 45.904 46.176 45.904 11.52 0 22.032-4.24 30.128-11.2a46.096 46.096 0 0 0 30.12 11.2c25.464 0 46.176-20.592 46.176-45.904a16 16 0 0 0-16.048-15.952z m218.24-581.624a255.984 255.984 0 0 0-128.824 18.48 290.544 290.544 0 0 0-52.232-19.568 83.04 83.04 0 0 1 41.92-11.328c29.832 0 54.096-24.128 54.096-53.784C703.416 24.128 679.144 0 649.32 0c-73.92 0-140.616 42.08-172.432 107.928-43.28 3.44-82.448 13.736-116.6 30.528a256.128 256.128 0 0 0-128.816-18.48c-139.68 16-240.24 141.976-224.16 280.848l45.856 396c14.824 128 123.6 224.544 253.024 224.544 9.76 0 19.664-0.576 29.464-1.688a256.656 256.656 0 0 0 65.296-16.344c32.056 12.4 68.464 18.664 109.008 18.664s76.952-6.256 109.008-18.664a256.56 256.56 0 0 0 65.312 16.344c9.792 1.12 19.696 1.68 29.448 1.68 129.424 0 238.2-96.528 253.024-224.536l45.856-396c16.08-138.872-84.48-264.856-224.16-280.848zM649.312 31.896a21.968 21.968 0 0 1 22.008 21.888 21.968 21.968 0 0 1-22 21.88 115.04 115.04 0 0 0-82.664 34.888 398.576 398.576 0 0 0-52.552-3.88 159.168 159.168 0 0 1 135.208-74.776zM331.984 987.984a228.24 228.24 0 0 1-25.792 1.48c-113.12 0-208.192-84.392-221.152-196.288l-45.84-396c-14.064-121.4 73.84-231.528 195.944-245.512a224.168 224.168 0 0 1 89.632 7.896 245.216 245.216 0 0 0-39.256 34.64c-53.44 58.464-78 141.016-69.168 232.448l35.072 362.936c6.24 64.976 30.24 120.656 69.416 161.024a219.744 219.744 0 0 0 39.536 32.248 225.824 225.824 0 0 1-28.392 5.128z m177.976 2.12c-70.456 0-126.32-20.744-166.032-61.648-34.08-35.12-55.024-84.184-60.56-141.92L248.296 423.6c-7.96-82.368 13.696-156.224 60.976-207.96 46.104-50.44 115.496-77.112 200.696-77.112 85.192 0 154.584 26.672 200.688 77.12 47.28 51.728 68.936 125.584 60.976 207.952L736.56 786.56c-5.536 57.712-26.48 106.784-60.56 141.896-39.72 40.904-95.576 61.648-166.04 61.648z m470.768-592.928l-45.848 396c-12.96 111.904-108.04 196.288-221.152 196.288a225.888 225.888 0 0 1-54.176-6.608 219.72 219.72 0 0 0 39.52-32.248c39.184-40.36 63.192-96.04 69.424-161.016l35.072-362.936c8.832-91.44-15.736-173.984-69.168-232.456a245.12 245.12 0 0 0-39.256-34.64 224.32 224.32 0 0 1 89.632-7.888c122.112 13.976 210.016 124.104 195.952 245.504zM689.344 693.344c0-16.64-13.568-30.128-30.304-30.128-16.744 0-30.312 13.488-30.312 30.128s13.568 30.136 30.312 30.136c16.736 0 30.304-13.488 30.304-30.136z" fill="#000000" p-id="2526"></path></svg>